<?xml version="1.0" encoding="UTF-8" standalone="no"?>
<svg
   xmlns:dc="http://purl.org/dc/elements/1.1/"
   xmlns:cc="http://creativecommons.org/ns#"
   xmlns:rdf="http://www.w3.org/1999/02/22-rdf-syntax-ns#"
   xmlns:svg="http://www.w3.org/2000/svg"
   xmlns="http://www.w3.org/2000/svg"
   xmlns:sodipodi="http://sodipodi.sourceforge.net/DTD/sodipodi-0.dtd"
   xmlns:inkscape="http://www.inkscape.org/namespaces/inkscape"
   width="594"
   height="594"
   id="svg2"
   version="1.1"
   inkscape:version="0.92.3 (2405546, 2018-03-11)"
   sodipodi:docname="epfl.svg">
  <metadata
     id="metadata16">
    <rdf:RDF>
      <cc:Work
         rdf:about="">
        <dc:format>image/svg+xml</dc:format>
        <dc:type
           rdf:resource="http://purl.org/dc/dcmitype/StillImage" />
        <dc:title>Europe Map Blue</dc:title>
      </cc:Work>
    </rdf:RDF>
  </metadata>
  <defs
     id="defs14">
    <clipPath
       id="clipPath4183"
       clipPathUnits="userSpaceOnUse">
      <path
         inkscape:connector-curvature="0"
         id="path4185"
         d="M 0,0 H 362.83502 V 272.409 H 0 Z" />
    </clipPath>
  </defs>
  <sodipodi:namedview
     pagecolor="#ffffff"
     bordercolor="#666666"
     borderopacity="1"
     objecttolerance="10"
     gridtolerance="10"
     guidetolerance="10"
     inkscape:pageopacity="0"
     inkscape:pageshadow="2"
     inkscape:window-width="2560"
     inkscape:window-height="1317"
     id="namedview12"
     showgrid="false"
     fit-margin-top="0"
     fit-margin-left="0"
     fit-margin-right="0"
     fit-margin-bottom="0"
     inkscape:zoom="1.0788572"
     inkscape:cx="-162.97036"
     inkscape:cy="147.93714"
     inkscape:window-x="0"
     inkscape:window-y="49"
     inkscape:window-maximized="1"
     inkscape:current-layer="layer1"
     inkscape:snap-bbox="true"
     inkscape:bbox-paths="true"
     inkscape:bbox-nodes="true"
     inkscape:snap-bbox-edge-midpoints="true"
     inkscape:snap-global="false" />
  <title
     id="title4">Europe Map Blue</title>
  <g
     id="g6"
     transform="translate(-129.21936,-12.473115)">
    <title
       id="title8">Layer 1</title>
    <g
       id="layer1">
      <g
         transform="matrix(7.4620794,0,0,7.4620794,930.86852,-4877.0678)"
         id="layer1-7"
         inkscape:label="Layer 1">
        <g
           id="g4461"
           transform="translate(2.7807203,-1.1586335)">
          <rect
             y="675.82697"
             x="-110.21045"
             height="36.063976"
             width="79.464569"
             id="rect4459"
             style="opacity:1;fill:#ffffff;fill-opacity:1;stroke:none;stroke-width:5.5;stroke-linecap:butt;stroke-miterlimit:4;stroke-dasharray:none;stroke-dashoffset:0;stroke-opacity:1" />
          <g
             transform="matrix(0.65930322,0,0,-0.65930322,-109.9205,711.69692)"
             inkscape:label="logo"
             id="g5345">
            <g
               transform="scale(0.1)"
               id="g5347">
              <path
                 inkscape:connector-curvature="0"
                 id="path5349"
                 style="fill:#fd1412;fill-opacity:1;fill-rule:nonzero;stroke:none"
                 d="m 10,210 h 380 c -60,80 -60,240 0,320 H 10" />
              <path
                 inkscape:connector-curvature="0"
                 id="path5351"
                 style="fill:#fd1412;fill-opacity:1;fill-rule:nonzero;stroke:none"
                 d="M 810,530 V 350 c 0,-60 44,-140 44,-140 h 336 v 320" />
              <path
                 inkscape:connector-curvature="0"
                 id="path5353"
                 style="fill:#000000;fill-opacity:1;fill-rule:nonzero;stroke:none"
                 d="m 430,210 c -60,80 -60,240 0,320 h 44 c -64,-80 -64,-240 0,-320" />
              <path
                 inkscape:connector-curvature="0"
                 id="path5355"
                 style="fill:#000000;fill-opacity:1;fill-rule:nonzero;stroke:none"
                 d="m 410,354 h 60 v 32 h -60 z" />
              <path
                 inkscape:connector-curvature="0"
                 id="path5357"
                 style="fill:#000000;fill-opacity:1;fill-rule:nonzero;stroke:none"
                 d="m 500,210 h 40 v 320 h -40 z" />
              <path
                 inkscape:connector-curvature="0"
                 id="path5359"
                 style="fill:#000000;fill-opacity:1;fill-rule:nonzero;stroke:none"
                 d="m 548,370 c 40,40 40,120 0,160 h 40 c 40,-40 40,-120 0,-160" />
              <path
                 inkscape:connector-curvature="0"
                 id="path5361"
                 style="fill:#000000;fill-opacity:1;fill-rule:nonzero;stroke:none"
                 d="m 630,210 v 160 c 0,80 40,160 40,160 h 44 c 0,0 -44,-80 -44,-160 V 210" />
              <path
                 inkscape:connector-curvature="0"
                 id="path5363"
                 style="fill:#000000;fill-opacity:1;fill-rule:nonzero;stroke:none"
                 d="m 650,354 h 60 v 32 h -60 z" />
              <path
                 inkscape:connector-curvature="0"
                 id="path5365"
                 style="fill:#000000;fill-opacity:1;fill-rule:nonzero;stroke:none"
                 d="m 730,530 h 40 V 350 c 0,-60 44,-140 44,-140 h -44 c 0,0 -40,80 -40,140" />
              <g
                 transform="scale(10)"
                 id="g5367">
                <text
                   id="text5369"
                   style="font-variant:normal;font-weight:normal;line-height:0%;font-family:'Times New Roman';-inkscape-font-specification:Times-Roman;writing-mode:lr-tb;fill:#000000;fill-opacity:1;fill-rule:nonzero;stroke:none"
                   transform="matrix(0.875,0,0,-1,1,11)">
                  <tspan
                     id="tspan5371"
                     sodipodi:role="line"
                     y="0"
                     x="0 7.0625701 14.66274 22.790911 29.853479 36.91605 40.51302 47.047588 55.175758 62.238331 70.366501 77.42907 84.491638 92.091812 100.21998 108.34815 112.74192 120.87009 128.99826"
                     style="font-size:9.60000038px;line-height:1.25">ÉCOLE POLYTECHNIQUE</tspan>
                  <tspan
                     id="tspan5373"
                     sodipodi:role="line"
                     y="10"
                     x="0 6.204823 12.937646 20.736069 27.468891 34.739315 42.537739 49.270561 56.003384 59.270607 67.069031 73.801849 77.069077 83.801903 91.600319 99.398743 105.60357 113.40199 121.20042 128.99884"
                     style="font-size:9.60000038px;line-height:1.25">FÉDÉRALE DE LAUSANNE</tspan>
                </text>
              </g>
            </g>
          </g>
        </g>
      </g>
    </g>
  </g>
</svg>
